<?xml version="1.0" encoding="UTF-8" standalone="no"?>
<!DOCTYPE svg PUBLIC "-//W3C//DTD SVG 1.1//EN"
 "http://www.w3.org/Graphics/SVG/1.1/DTD/svg11.dtd">
<!-- Generated by graphviz version 2.43.0 (0)
 -->
<!-- Title: %3 Pages: 1 -->
<svg width="669pt" height="803pt"
 viewBox="0.00 0.00 669.42 802.96" xmlns="http://www.w3.org/2000/svg" xmlns:xlink="http://www.w3.org/1999/xlink">
<g id="graph0" class="graph" transform="scale(1 1) rotate(0) translate(4 798.96)">
<title>%3</title>
<polygon fill="white" stroke="transparent" points="-4,4 -4,-798.96 665.42,-798.96 665.42,4 -4,4"/>
<!-- Usuario -->
<g id="node1" class="node">
<title>Usuario</title>
<ellipse fill="none" stroke="black" cx="210.46" cy="-148.49" rx="125.32" ry="148.48"/>
<polygon fill="lightblue" stroke="transparent" points="130.46,-228.49 130.46,-249.49 291.46,-249.49 291.46,-228.49 130.46,-228.49"/>
<polygon fill="none" stroke="black" points="130.46,-228.49 130.46,-249.49 291.46,-249.49 291.46,-228.49 130.46,-228.49"/>
<text text-anchor="start" x="179.96" y="-236.29" font-family="Times,serif" font-weight="bold" font-size="14.00">Usuario</text>
<polygon fill="none" stroke="black" points="130.46,-207.49 130.46,-228.49 291.46,-228.49 291.46,-207.49 130.46,-207.49"/>
<text text-anchor="start" x="153.46" y="-214.29" font-family="Times,serif" font-size="14.00">+id_usuario: int</text>
<polygon fill="none" stroke="black" points="130.46,-186.49 130.46,-207.49 291.46,-207.49 291.46,-186.49 130.46,-186.49"/>
<text text-anchor="start" x="162.46" y="-193.29" font-family="Times,serif" font-size="14.00">+nombre: str</text>
<polygon fill="none" stroke="black" points="130.46,-165.49 130.46,-186.49 291.46,-186.49 291.46,-165.49 130.46,-165.49"/>
<text text-anchor="start" x="170.46" y="-172.29" font-family="Times,serif" font-size="14.00">+email: str</text>
<polygon fill="none" stroke="black" points="130.46,-144.49 130.46,-165.49 291.46,-165.49 291.46,-144.49 130.46,-144.49"/>
<text text-anchor="start" x="180.46" y="-151.29" font-family="Times,serif" font-size="14.00">+rol: str</text>
<polygon fill="none" stroke="black" points="130.46,-123.49 130.46,-144.49 291.46,-144.49 291.46,-123.49 130.46,-123.49"/>
<text text-anchor="start" x="150.46" y="-130.29" font-family="Times,serif" font-size="14.00">+contrasena: str</text>
<polygon fill="none" stroke="black" points="130.46,-47.49 130.46,-123.49 291.46,-123.49 291.46,-47.49 130.46,-47.49"/>
<text text-anchor="start" x="137.46" y="-110.29" font-family="Times,serif" font-style="italic" font-size="14.00">+registrar_usuario()</text>
<text text-anchor="start" x="133.46" y="-96.29" font-family="Times,serif" font-style="italic" font-size="14.00">+obtener_por_email()</text>
<text text-anchor="start" x="145.96" y="-82.29" font-family="Times,serif" font-style="italic" font-size="14.00">+obtener_por_id()</text>
<text text-anchor="start" x="157.46" y="-68.29" font-family="Times,serif" font-style="italic" font-size="14.00">+cambiar_rol()</text>
<text text-anchor="start" x="139.96" y="-54.29" font-family="Times,serif" font-style="italic" font-size="14.00">+eliminar_usuario()</text>
</g>
<!-- Login -->
<g id="node2" class="node">
<title>Login</title>
<ellipse fill="none" stroke="black" cx="210.46" cy="-466.78" rx="143.59" ry="84.29"/>
<polygon fill="lightblue" stroke="transparent" points="117.46,-500.78 117.46,-521.78 304.46,-521.78 304.46,-500.78 117.46,-500.78"/>
<polygon fill="none" stroke="black" points="117.46,-500.78 117.46,-521.78 304.46,-521.78 304.46,-500.78 117.46,-500.78"/>
<text text-anchor="start" x="188.46" y="-508.58" font-family="Times,serif" font-weight="bold" font-size="14.00">Login</text>
<polygon fill="none" stroke="black" points="117.46,-479.78 117.46,-500.78 304.46,-500.78 304.46,-479.78 117.46,-479.78"/>
<text text-anchor="start" x="120.46" y="-486.58" font-family="Times,serif" font-size="14.00">+usuario_actual: Usuario</text>
<polygon fill="none" stroke="black" points="117.46,-458.78 117.46,-479.78 304.46,-479.78 304.46,-458.78 117.46,-458.78"/>
<text text-anchor="start" x="135.46" y="-465.58" font-family="Times,serif" font-size="14.00">+password_hash: str</text>
<polygon fill="none" stroke="black" points="117.46,-410.78 117.46,-458.78 304.46,-458.78 304.46,-410.78 117.46,-410.78"/>
<text text-anchor="start" x="142.46" y="-445.58" font-family="Times,serif" font-style="italic" font-size="14.00">+inicio_de_sesion()</text>
<text text-anchor="start" x="150.96" y="-431.58" font-family="Times,serif" font-style="italic" font-size="14.00">+cambiar_pass()</text>
<text text-anchor="start" x="139.96" y="-417.58" font-family="Times,serif" font-style="italic" font-size="14.00">+cambiar_nombre()</text>
</g>
<!-- Login&#45;&gt;Usuario -->
<g id="edge1" class="edge">
<title>Login&#45;&gt;Usuario</title>
<path fill="none" stroke="black" d="M210.46,-382.26C210.46,-359.16 210.46,-333.3 210.46,-307.44"/>
<polygon fill="black" stroke="black" points="213.96,-307.15 210.46,-297.15 206.96,-307.15 213.96,-307.15"/>
<text text-anchor="middle" x="222.96" y="-318.78" font-family="Times,serif" font-size="14.00">usa</text>
</g>
<!-- Pedidos -->
<g id="node3" class="node">
<title>Pedidos</title>
<ellipse fill="none" stroke="black" cx="516.46" cy="-466.78" rx="144.91" ry="118.59"/>
<polygon fill="lightblue" stroke="transparent" points="422.46,-525.78 422.46,-546.78 611.46,-546.78 611.46,-525.78 422.46,-525.78"/>
<polygon fill="none" stroke="black" points="422.46,-525.78 422.46,-546.78 611.46,-546.78 611.46,-525.78 422.46,-525.78"/>
<text text-anchor="start" x="485.96" y="-533.58" font-family="Times,serif" font-weight="bold" font-size="14.00">Pedidos</text>
<polygon fill="none" stroke="black" points="422.46,-504.78 422.46,-525.78 611.46,-525.78 611.46,-504.78 422.46,-504.78"/>
<text text-anchor="start" x="463.96" y="-511.58" font-family="Times,serif" font-size="14.00">+_pedidos: list</text>
<polygon fill="none" stroke="black" points="422.46,-483.78 422.46,-504.78 611.46,-504.78 611.46,-483.78 422.46,-483.78"/>
<text text-anchor="start" x="445.96" y="-490.58" font-family="Times,serif" font-size="14.00">+_movimientos: list</text>
<polygon fill="none" stroke="black" points="422.46,-462.78 422.46,-483.78 611.46,-483.78 611.46,-462.78 422.46,-462.78"/>
<text text-anchor="start" x="432.46" y="-469.58" font-family="Times,serif" font-size="14.00">+_ultimo_id_pedido: int</text>
<polygon fill="none" stroke="black" points="422.46,-386.78 422.46,-462.78 611.46,-462.78 611.46,-386.78 422.46,-386.78"/>
<text text-anchor="start" x="447.96" y="-449.58" font-family="Times,serif" font-style="italic" font-size="14.00">+ingresar_pedido()</text>
<text text-anchor="start" x="425.46" y="-435.58" font-family="Times,serif" font-style="italic" font-size="14.00">+listar_pedidos_usuario()</text>
<text text-anchor="start" x="432.46" y="-421.58" font-family="Times,serif" font-style="italic" font-size="14.00">+listar_pedidos_todos()</text>
<text text-anchor="start" x="441.46" y="-407.58" font-family="Times,serif" font-style="italic" font-size="14.00">+despachar_pedido()</text>
<text text-anchor="start" x="427.96" y="-393.58" font-family="Times,serif" font-style="italic" font-size="14.00">+registrar_movimiento()</text>
</g>
<!-- Pedidos&#45;&gt;Usuario -->
<g id="edge5" class="edge">
<title>Pedidos&#45;&gt;Usuario</title>
<path fill="none" stroke="black" d="M426.72,-373.02C390.67,-335.77 348.95,-292.64 311.82,-254.26"/>
<polygon fill="black" stroke="black" points="313.93,-251.4 304.46,-246.65 308.89,-256.27 313.93,-251.4"/>
<text text-anchor="middle" x="393.96" y="-318.78" font-family="Times,serif" font-size="14.00">usa</text>
</g>
<!-- Menu -->
<g id="node4" class="node">
<title>Menu</title>
<ellipse fill="none" stroke="black" cx="210.46" cy="-715.77" rx="155.63" ry="79.39"/>
<polygon fill="lightblue" stroke="transparent" points="108.46,-746.77 108.46,-767.77 312.46,-767.77 312.46,-746.77 108.46,-746.77"/>
<polygon fill="none" stroke="black" points="108.46,-746.77 108.46,-767.77 312.46,-767.77 312.46,-746.77 108.46,-746.77"/>
<text text-anchor="start" x="187.46" y="-754.57" font-family="Times,serif" font-weight="bold" font-size="14.00">Menu</text>
<polygon fill="none" stroke="black" points="108.46,-725.77 108.46,-746.77 312.46,-746.77 312.46,-725.77 108.46,-725.77"/>
<text text-anchor="start" x="161.96" y="-732.57" font-family="Times,serif" font-size="14.00">+login: Login</text>
<polygon fill="none" stroke="black" points="108.46,-663.77 108.46,-725.77 312.46,-725.77 312.46,-663.77 108.46,-663.77"/>
<text text-anchor="start" x="163.96" y="-712.57" font-family="Times,serif" font-style="italic" font-size="14.00">+ver_menu()</text>
<text text-anchor="start" x="111.46" y="-698.57" font-family="Times,serif" font-style="italic" font-size="14.00">+registrar_usuario_admin()</text>
<text text-anchor="start" x="126.96" y="-684.57" font-family="Times,serif" font-style="italic" font-size="14.00">+cambiar_rol_usuario()</text>
<text text-anchor="start" x="139.46" y="-670.57" font-family="Times,serif" font-style="italic" font-size="14.00">+eliminar_usuario()</text>
</g>
<!-- Menu&#45;&gt;Usuario -->
<g id="edge3" class="edge">
<title>Menu&#45;&gt;Usuario</title>
<path fill="none" stroke="black" d="M100.82,-659.55C73.52,-640.13 47.72,-615.51 32.46,-585.57 -15.5,-491.5 -5.28,-446.6 32.46,-347.98 47.25,-309.33 73.43,-273.46 101.23,-243.15"/>
<polygon fill="black" stroke="black" points="104.05,-245.25 108.33,-235.56 98.94,-240.47 104.05,-245.25"/>
<text text-anchor="middle" x="44.96" y="-463.08" font-family="Times,serif" font-size="14.00">usa</text>
</g>
<!-- Menu&#45;&gt;Login -->
<g id="edge2" class="edge">
<title>Menu&#45;&gt;Login</title>
<path fill="none" stroke="black" d="M210.46,-636.28C210.46,-612.44 210.46,-586.02 210.46,-561.29"/>
<polygon fill="black" stroke="black" points="213.96,-561.18 210.46,-551.18 206.96,-561.18 213.96,-561.18"/>
<text text-anchor="middle" x="240.96" y="-607.37" font-family="Times,serif" font-size="14.00">depende</text>
</g>
<!-- Menu&#45;&gt;Pedidos -->
<g id="edge4" class="edge">
<title>Menu&#45;&gt;Pedidos</title>
<path fill="none" stroke="black" d="M292.86,-648.26C327.57,-620.24 368.48,-587.22 405.76,-557.13"/>
<polygon fill="black" stroke="black" points="408.07,-559.76 413.65,-550.76 403.67,-554.32 408.07,-559.76"/>
<text text-anchor="middle" x="356.96" y="-607.37" font-family="Times,serif" font-size="14.00">usa</text>
</g>
</g>
</svg>
